<?xml version="1.0" standalone="no"?>
<!DOCTYPE svg PUBLIC "-//W3C//DTD SVG 20010904//EN"
 "http://www.w3.org/TR/2001/REC-SVG-20010904/DTD/svg10.dtd">
<svg version="1.0" xmlns="http://www.w3.org/2000/svg"
 width="1240.000000pt" height="1240.000000pt" viewBox="0 0 1240.000000 1240.000000"
 preserveAspectRatio="xMidYMid meet">
<metadata>
Created by potrace 1.16, written by Peter Selinger 2001-2019
</metadata>
<g transform="translate(0.000000,1240.000000) scale(0.100000,-0.100000)"
fill="#000000" stroke="none">
<path d="M0 6200 l0 -6200 1864 0 1864 0 32 87 c18 49 45 126 61 171 43 121
83 206 125 263 l37 50 -14 62 -13 61 30 23 c16 12 77 58 135 100 115 84 221
170 421 340 69 59 193 164 275 233 81 69 190 161 241 206 51 45 114 93 140
105 26 13 75 43 109 67 90 63 197 109 304 130 l94 20 -2 43 c-3 48 -29 200
-45 262 -11 45 -118 157 -149 157 -27 0 -25 -38 12 -191 17 -70 29 -135 26
-143 -10 -25 -26 -19 -45 15 -40 73 -77 111 -169 177 -121 86 -144 111 -222
239 -35 57 -69 103 -76 103 -21 0 -56 -57 -62 -100 -7 -53 20 -92 108 -154
103 -73 100 -87 -13 -66 -37 7 -64 7 -82 0 -25 -9 -26 -12 -20 -60 6 -44 4
-50 -11 -50 -18 0 -63 43 -141 133 -40 47 -74 61 -74 32 0 -9 16 -47 35 -85
38 -75 44 -106 20 -96 -26 9 -163 105 -325 224 -153 114 -245 199 -342 319
-28 34 -55 60 -61 56 -13 -8 -3 -96 18 -158 16 -46 64 -158 137 -315 34 -73
45 -120 30 -120 -17 0 -134 69 -190 113 -73 56 -176 168 -229 250 -24 37 -48
65 -52 63 -4 -3 -18 -40 -31 -83 -12 -43 -34 -100 -47 -127 -31 -60 -119 -156
-145 -156 -20 0 -20 -3 8 110 18 69 18 80 -2 159 -20 81 -47 135 -134 271 -36
58 -73 121 -80 140 -43 106 -111 245 -122 245 -20 0 -28 -52 -38 -245 -6 -102
-13 -192 -16 -201 -2 -9 -8 -67 -13 -128 -4 -61 -11 -114 -15 -118 -16 -16
-26 26 -26 109 0 48 -5 107 -10 130 -24 102 -69 278 -85 333 -42 147 -56 227
-65 364 -5 80 -14 200 -19 266 -24 278 -41 524 -41 585 0 76 26 265 46 332 9
30 14 95 14 177 0 106 -4 143 -21 195 -24 73 -24 72 -166 125 -74 27 -89 29
-170 24 l-88 -5 -114 81 -114 81 -78 0 c-43 0 -90 5 -104 10 -30 12 -30 29 5
105 10 22 43 110 74 195 31 85 70 190 86 232 17 42 30 80 30 83 0 3 18 42 40
86 22 44 40 85 40 90 0 54 -284 -189 -399 -341 -32 -42 -82 -126 -112 -186
-54 -109 -79 -122 -41 -22 78 205 238 483 365 633 62 73 174 184 219 217 128
94 188 140 188 144 0 2 -44 49 -97 105 -145 150 -182 206 -229 346 -32 98 -43
249 -24 349 53 283 293 552 580 650 45 16 82 19 210 18 88 0 172 -6 195 -13
22 -6 83 -14 135 -18 l96 -6 32 66 c128 259 383 540 663 728 199 133 363 200
654 264 66 15 123 29 127 31 4 2 59 18 123 34 122 31 279 90 303 114 12 11 11
21 -2 62 -51 160 -59 293 -25 432 43 178 139 317 309 447 61 47 68 50 122 49
46 -1 65 -7 93 -28 40 -31 52 -69 13 -42 -43 30 -132 15 -183 -31 -76 -67
-156 -208 -193 -338 -45 -160 -52 -209 -52 -388 0 -109 4 -178 10 -182 6 -4
45 5 88 19 382 124 782 136 1177 35 335 -86 709 -270 999 -493 55 -42 104 -76
111 -76 6 0 27 12 46 26 59 44 154 94 230 119 64 22 89 25 221 25 134 0 158
-3 226 -26 145 -48 255 -117 363 -227 63 -65 97 -113 141 -202 65 -129 72
-163 71 -335 0 -151 -1 -157 -36 -255 -60 -170 -75 -207 -103 -246 -14 -21
-23 -43 -19 -48 3 -6 39 -11 80 -11 199 0 552 -138 763 -297 102 -78 201 -200
190 -234 -2 -6 -60 27 -128 72 -157 103 -397 218 -430 207 -19 -6 24 -52 165
-174 138 -118 195 -179 259 -274 36 -55 36 -55 16 -72 -11 -9 -44 -24 -73 -32
-53 -15 -53 -16 -150 -160 -112 -167 -165 -219 -339 -334 l-118 -77 6 -40 c3
-22 9 -78 13 -125 19 -185 39 -254 124 -420 347 -674 396 -790 463 -1095 26
-118 42 -355 51 -755 4 -174 2 -214 -13 -262 -17 -56 -47 -98 -61 -84 -4 3
-10 37 -14 74 -8 70 -50 182 -68 182 -7 0 -11 -62 -11 -184 0 -196 -5 -246
-25 -246 -16 0 -25 32 -25 96 0 144 -91 508 -119 478 -5 -5 -11 -94 -14 -199
-2 -104 -9 -212 -15 -240 -6 -27 -21 -106 -33 -175 -12 -69 -26 -136 -31 -150
-5 -14 -13 -43 -18 -65 -26 -128 -65 -245 -81 -245 -4 0 -10 26 -14 58 -3 31
-10 75 -15 97 -5 22 -11 52 -15 68 -3 15 -11 27 -19 27 -18 0 -34 -39 -46
-115 -6 -35 -14 -75 -19 -87 -5 -13 -19 -76 -32 -141 -21 -107 -25 -118 -44
-115 -19 3 -21 14 -32 187 -18 291 -65 496 -154 672 -36 72 -87 144 -95 136
-3 -2 -20 -59 -39 -126 -81 -283 -201 -513 -349 -669 -38 -39 -76 -72 -86 -72
-25 0 -30 27 -30 188 0 131 -9 176 -24 119 -8 -30 -159 -305 -187 -342 -30
-37 -34 -20 -15 65 77 347 94 473 74 535 -7 21 -18 40 -23 42 -6 2 -63 -90
-128 -204 -100 -178 -121 -224 -147 -318 -17 -61 -38 -135 -46 -165 -31 -110
-49 -155 -64 -155 -8 0 -17 14 -21 32 -6 29 -47 140 -85 231 -8 19 -20 32 -27
30 -6 -2 -24 -31 -39 -64 -54 -116 -63 -129 -85 -132 -21 -3 -23 1 -23 37 0
22 7 68 15 103 17 73 24 222 11 235 -4 4 -18 -5 -30 -21 -65 -89 -303 -384
-351 -436 -43 -46 -55 -67 -55 -92 0 -41 30 -151 44 -160 6 -4 28 -8 49 -8 21
0 84 -11 140 -25 129 -31 268 -100 407 -201 279 -203 382 -259 825 -449 253
-109 427 -191 478 -227 24 -17 28 -26 26 -64 -3 -42 0 -46 60 -100 130 -118
215 -290 271 -549 12 -55 28 -122 35 -150 7 -27 24 -101 37 -162 l23 -113 73
0 c39 0 72 3 72 6 0 3 -17 27 -38 53 -22 25 -47 58 -57 74 -17 27 -17 27 5 27
26 0 127 -102 136 -137 l6 -23 1354 0 1354 0 0 6200 0 6200 -6200 0 -6200 0 0
-6200z"/>
</g>
</svg>
